<svg aria-hidden="true" style="position:absolute;width:0;height:0;overflow:hidden" xmlns="http://www.w3.org/2000/svg">
  <defs>
    <symbol id="icon-arrow-up" viewBox="0 0 32 32">
      <path fill="#fff" style="fill:var(--color1, #fff)" d="M16.95 9.73v15.8h-1.9V9.72l-6 6-1.34-1.36L16 6.08l8.3 8.3-1.36 1.34-5.99-6z"/>
    </symbol>
    <symbol id="icon-trash" viewBox="0 0 32 32">
      <path fill="#fff" style="fill:var(--color1, #fff)" d="M23.86 7.43h-4.29V6c0-.79-.64-1.43-1.43-1.43h-4.28c-.8 0-1.43.64-1.43 1.43v1.43H8.14c-.79 0-1.43.64-1.43 1.43v1.43c0 .79.64 1.43 1.43 1.43h15.72c.79 0 1.42-.64 1.42-1.43V8.86c0-.8-.63-1.43-1.42-1.43zm-5.72 0h-4.28v-.71c0-.4.32-.72.71-.72h2.86c.4 0 .71.32.71.71v.72zm-10 17.14A2.86 2.86 0 0 0 11 27.43h10a2.86 2.86 0 0 0 2.86-2.86V13.14H8.14v11.43zm10.72-9.28a.71.71 0 0 1 1.42 0v8.57a.71.71 0 0 1-1.42 0v-8.57zm-3.57 0a.71.71 0 0 1 1.42 0v8.57a.71.71 0 0 1-1.42 0v-8.57zm-3.58 0a.71.71 0 0 1 1.43 0v8.57a.71.71 0 0 1-1.43 0v-8.57z"/>
    </symbol>
    <symbol id="icon-Headline" viewBox="0 0 33 32">
      <path fill="#97aacd" style="fill:var(--color2, #97aacd)" d="M5.97 2.67h21.34c1.47 0 2.66 1.2 2.66 2.66v5.34c0 1.47-1.2 2.66-2.66 2.66H5.97a2.67 2.67 0 0 1-2.66-2.66V5.33c0-1.47 1.19-2.66 2.66-2.66zm0 2.66v5.34h21.34V5.33H5.97zm24 16V24H3.31v-2.67h26.66zm0 5.34v2.66H3.31v-2.66h26.66z"/>
      <path fill="#97aacd" style="fill:var(--color2, #97aacd)" d="M29.97 24v-2.67H3.31V24h26.66zM29.97 16v2.67H3.31V16h26.66z"/>
    </symbol>
    <symbol id="icon-multimedia" viewBox="0 0 33 32">
      <path fill="#97aacd" style="fill:var(--color2, #97aacd)" d="m5.97 20.78 5.34-5.33 4.66 4.66 8.67-8.66 2.67 2.66V5.33H5.97v15.45zm0 3.77v2.12h12.78l-7.44-7.45-5.34 5.33zm16.56 2.12h4.78v-8.78l-2.67-2.67L17.86 22l4.67 4.67zm-16.56-24h21.34c1.47 0 2.66 1.2 2.66 2.66v21.34c0 1.47-1.2 2.66-2.66 2.66H5.97a2.67 2.67 0 0 1-2.66-2.66V5.33c0-1.47 1.19-2.66 2.66-2.66zm9.34 4a4 4 0 1 1 0 8 4 4 0 0 1 0-8zm0 2.66a1.33 1.33 0 1 0 0 2.67 1.33 1.33 0 0 0 0-2.67z"/>
    </symbol>
    <symbol id="icon-Paragraph" viewBox="0 0 33 32">
      <path fill="#97aacd" style="fill:var(--color2, #97aacd)" d="M21.97 22.67v2.66H3.31v-2.66h18.66zm8-5.34V20H3.31v-2.67h26.66zm-8-5.33v2.67H3.31V12h18.66zm8-5.33v2.66H3.31V6.67h26.66z"/>
    </symbol>
    <symbol id="icon-copy" viewBox="0 0 32 32">
      <path fill="#4b97b8" style="fill:var(--color3, #4b97b8)" d="M3.05 0h25.9A3.05 3.05 0 0 1 32 3.05v25.9A3.05 3.05 0 0 1 28.95 32H3.05A3.05 3.05 0 0 1 0 28.95V3.05A3.05 3.05 0 0 1 3.05 0z"/>
      <path fill="#fff" style="fill:var(--color1, #fff)" d="M19.81 19.81v3.81c0 1.1-.8 1.9-1.9 1.9H8.37c-1.1 0-1.9-.8-1.9-1.9V14.1c0-1.1.8-1.9 1.9-1.9h3.81V8.37c0-1.1.8-1.9 1.9-1.9h9.53c1.1 0 1.9.8 1.9 1.9v9.52c0 1.1-.8 1.91-1.9 1.91h-3.81zm-1.9 0H14.1c-1.1 0-1.91-.8-1.91-1.9v-3.82H8.38v9.53h9.52V19.8zM14.1 8.38v9.52h9.52V8.39h-9.53z"/>
    </symbol>
  </defs>
</svg>
